<svg width="124.417" height="157.158" xmlns="http://www.w3.org/2000/svg">

 <g>
  <title>Layer 1</title>
  <g id="svg_1">
   <path id="svg_2" fill="#fcffff" d="m62.209,0a12.993,12.993 0 0 0 -12.483,9.822l-39.9,0a9.875,9.875 0 0 0 -9.826,9.823l0,127.691a9.875,9.875 0 0 0 9.822,9.822l104.773,0a9.875,9.875 0 0 0 9.822,-9.822l0,-127.691a9.875,9.875 0 0 0 -9.822,-9.822l-39.9,0a12.993,12.993 0 0 0 -12.486,-9.823zm0,6.548a6.5,6.5 0 0 1 6.548,6.552a3.28,3.28 0 0 0 3.274,3.274l9.822,0l0,6.548l-39.289,0l0,-6.551l9.822,0a3.28,3.28 0 0 0 3.274,-3.271a6.5,6.5 0 0 1 6.549,-6.552zm-52.387,9.823l26.193,0l0,9.822a3.28,3.28 0 0 0 3.274,3.274l45.838,0a3.28,3.28 0 0 0 3.273,-3.274l0,-9.822l26.193,0a3.217,3.217 0 0 1 3.274,3.274l0,127.691a3.217,3.217 0 0 1 -3.274,3.274l-104.771,0a3.217,3.217 0 0 1 -3.274,-3.274l0,-127.691a3.217,3.217 0 0 1 3.274,-3.274z" class="a"/>
  </g>
  <g>

   <g transform="translate(-5.875 -8.623)">
    <path fill="#fcffff" transform="translate(0 0)" d="m91.07269,63.69444a2.708,2.708 0 0 0 -2.2,1.274l-25.469,38.964l-16.501,-14.259a2.708,2.708 0 1 0 -3.554,4.062l18.87,16.333a2.7,2.7 0 0 0 4.02,-0.592l27.207,-41.55a2.707,2.707 0 0 0 -2.373,-4.232z" class="a"/>
   </g>
  </g>
 </g>
</svg>